<svg xmlns="http://www.w3.org/2000/svg" width="1200" height="620" viewBox="0 0 1200 620"><rect width="1200" height="620" fill="#f8fafc"/><text x="60" y="70" font-family="Arial" font-size="34" font-weight="700" fill="#111827">Hyperspectral Plant Stress ML</text><text x="60" y="108" font-family="Arial" font-size="20" fill="#475569">Spectral features → PCA → Random Forest / SVM → validation</text><g font-family="Arial"><rect x="80" y="175" width="300" height="300" rx="18" fill="#fff" stroke="#cbd5e1"/><text x="230" y="215" text-anchor="middle" font-size="22" font-weight="700">Spectral Signatures</text><path d="M110 410 C170 390 205 300 250 250 C300 190 335 205 355 225" fill="none" stroke="#16a34a" stroke-width="8"/><path d="M110 430 C165 405 205 340 250 305 C300 260 335 275 355 295" fill="none" stroke="#f59e0b" stroke-width="8"/><path d="M110 445 C165 435 205 385 250 365 C300 335 335 345 355 360" fill="none" stroke="#dc2626" stroke-width="8"/><rect x="450" y="175" width="300" height="300" rx="18" fill="#fff" stroke="#cbd5e1"/><text x="600" y="215" text-anchor="middle" font-size="22" font-weight="700">Feature Space</text><circle cx="540" cy="320" r="10" fill="#16a34a"/><circle cx="570" cy="290" r="10" fill="#16a34a"/><circle cx="620" cy="350" r="10" fill="#f59e0b"/><circle cx="655" cy="325" r="10" fill="#f59e0b"/><circle cx="610" cy="255" r="10" fill="#dc2626"/><circle cx="680" cy="270" r="10" fill="#dc2626"/><text x="600" y="450" text-anchor="middle" font-size="17" fill="#475569">PCA / separability</text><rect x="820" y="175" width="300" height="300" rx="18" fill="#fff" stroke="#cbd5e1"/><text x="970" y="215" text-anchor="middle" font-size="22" font-weight="700">Model Evaluation</text><rect x="885" y="275" width="55" height="55" fill="#86efac"/><rect x="940" y="275" width="55" height="55" fill="#e2e8f0"/><rect x="995" y="275" width="55" height="55" fill="#e2e8f0"/><rect x="885" y="330" width="55" height="55" fill="#e2e8f0"/><rect x="940" y="330" width="55" height="55" fill="#86efac"/><rect x="995" y="330" width="55" height="55" fill="#e2e8f0"/><rect x="885" y="385" width="55" height="55" fill="#e2e8f0"/><rect x="940" y="385" width="55" height="55" fill="#e2e8f0"/><rect x="995" y="385" width="55" height="55" fill="#86efac"/><text x="970" y="460" text-anchor="middle" font-size="17" fill="#475569">Confusion matrix</text><text x="600" y="545" text-anchor="middle" font-size="20" font-weight="700" fill="#0f172a">Python • scikit-learn • PCA • Random Forest • SVM • accuracy assessment</text></g></svg>